<svg width="41" height="40" viewBox="0 0 41 40" fill="none" xmlns="http://www.w3.org/2000/svg">
<path d="M35.1442 22.0637C34.7013 22.0637 34.2383 21.9228 33.7955 21.8221C32.8986 21.6245 32.0173 21.3621 31.1584 21.037C30.2245 20.6973 29.1979 20.7149 28.2763 21.0866C27.3546 21.4582 26.603 22.1576 26.166 23.0501L25.7231 23.956C23.7624 22.8652 21.9607 21.5106 20.3684 19.9299C18.7877 18.3376 17.433 16.5358 16.3423 14.5751L17.1878 14.0115C18.0803 13.5745 18.7797 12.8228 19.1513 11.9012C19.5229 10.9795 19.5406 9.95299 19.2008 9.01911C18.8812 8.15838 18.6189 7.27742 18.4157 6.38202C18.3151 5.93914 18.2346 5.47614 18.1742 5.01314C17.9297 3.59519 17.187 2.3111 16.0798 1.39214C14.9727 0.473176 13.5737 -0.0202792 12.135 0.000638747H6.09586C5.2283 -0.00750715 4.36916 0.171373 3.57695 0.5251C2.78473 0.878828 2.07803 1.3991 1.50495 2.05049C0.931878 2.70189 0.505884 3.46912 0.25597 4.29994C0.00605666 5.13077 -0.0619083 6.00569 0.056702 6.86515C1.12913 15.2986 4.98069 23.1344 11.003 29.1348C17.0253 35.1352 24.875 38.9583 33.3123 40H34.0773C35.5617 40.0022 36.995 39.4575 38.1034 38.4701C38.7402 37.9005 39.249 37.2022 39.596 36.4214C39.943 35.6406 40.1204 34.7951 40.1164 33.9407V27.9015C40.0918 26.5033 39.5826 25.1569 38.6758 24.0922C37.769 23.0275 36.5208 22.3105 35.1442 22.0637ZM36.1507 34.142C36.1504 34.4278 36.0891 34.7103 35.9711 34.9706C35.8531 35.2309 35.681 35.4632 35.4663 35.6518C35.242 35.8471 34.9791 35.9928 34.6946 36.0796C34.4102 36.1663 34.1107 36.192 33.8156 36.1551C26.2765 35.1884 19.2738 31.7394 13.912 26.3521C8.55017 20.9648 5.13445 13.9457 4.20359 6.40215C4.17155 6.10727 4.19963 5.80896 4.28613 5.52524C4.37263 5.24152 4.51575 4.97829 4.70685 4.75144C4.8955 4.53671 5.1277 4.36462 5.38803 4.2466C5.64835 4.12859 5.93082 4.06737 6.21664 4.067H12.2558C12.7239 4.05659 13.181 4.20969 13.5485 4.49995C13.9159 4.79022 14.1706 5.19949 14.2689 5.65732C14.3494 6.20755 14.45 6.75107 14.5708 7.28789C14.8034 8.34906 15.1128 9.39189 15.4968 10.4081L12.6785 11.7166C12.4376 11.8272 12.2208 11.9842 12.0407 12.1788C11.8606 12.3734 11.7207 12.6016 11.6291 12.8503C11.5374 13.0991 11.4958 13.3635 11.5066 13.6284C11.5175 13.8933 11.5805 14.1535 11.6921 14.394C14.5893 20.5997 19.5778 25.5881 25.7835 28.4853C26.2736 28.6867 26.8233 28.6867 27.3134 28.4853C27.5645 28.3955 27.7952 28.2568 27.9922 28.0771C28.1892 27.8974 28.3485 27.6803 28.4609 27.4385L29.709 24.6203C30.7496 24.9924 31.8118 25.3017 32.8896 25.5463C33.4264 25.6671 33.9699 25.7677 34.5202 25.8482C34.978 25.9464 35.3873 26.2012 35.6775 26.5686C35.9678 26.936 36.1209 27.3932 36.1105 27.8613L36.1507 34.142Z" fill="#FF5600"/>
</svg>
